<?xml version="1.0" encoding="UTF-8"?>
<svg viewBox="0 0 187.5 187.5" xmlns="http://www.w3.org/2000/svg">
 <g transform="matrix(1.314 0 0 1.314 -408.75 -7.3042)">
  <path d="m355.23 136.82-23.193-24.258-6.3254-55.064s84.412-38.073 101.74-28.407 16.174 25.195 16.174 25.195v45.825l-88.396 36.709z" fill="none" stroke="#000" stroke-width="2.994"/>
  <path d="m319.91 115.31v-47.108s-0.82509-18.23 17.739-7.8577 17.327 27.036 17.327 27.036v49.174l-35.066-21.245z" fill="#fff" fill-rule="evenodd" stroke="#000" stroke-width="2.9315"/>
  <path d="m364.7 102.42v-48.923l31.92-9.5928v20.145l-25.316 8.6335v29.738s-2.2014 8.6335-6.6042 0z" fill-rule="evenodd" stroke="#000" stroke-width=".51378"/>
  <path d="m328.37 89.422s0.84339 7.5905 5.9037 9.2773 10.121-1.6868 10.121-1.6868-4.217 0-9.2773-2.5302-5.0603-5.0603-6.7471-5.0603z" fill-rule="evenodd"/>
 </g>
</svg>
